HIERARCHY
ROOT Hips
{
	OFFSET 0.000000 0.000000 0.000000
	CHANNELS 6 Xposition Yposition Zposition Zrotation Yrotation Xrotation 
	JOINT LHipJoint
	{
		OFFSET 0.000000 0.000000 0.000000
		CHANNELS 3 Zrotation Yrotation Xrotation
		JOINT LeftUpLeg
		{
			OFFSET 1.363060 -1.794630 0.839290
			CHANNELS 3 Zrotation Yrotation Xrotation
			JOINT LeftLeg
			{
				OFFSET 2.448110 -6.726130 0.000000
				CHANNELS 3 Zrotation Yrotation Xrotation
				JOINT LeftFoot
				{
					OFFSET 2.562200 -7.039590 0.000000
					CHANNELS 3 Zrotation Yrotation Xrotation
					JOINT LeftToeBase
					{
						OFFSET 0.157640 -0.433110 2.322550
						CHANNELS 3 Zrotation Yrotation Xrotation
						End Site
						{
							OFFSET 0.000000 0.000000 0.000000
						}
					}
				}
			}
		}
	}
	JOINT RHipJoint
	{
		OFFSET 0.000000 0.000000 0.000000
		CHANNELS 3 Zrotation Yrotation Xrotation
		JOINT RightUpLeg
		{
			OFFSET -1.305520 -1.794630 0.839290
			CHANNELS 3 Zrotation Yrotation Xrotation
			JOINT RightLeg
			{
				OFFSET -2.542530 -6.985550 0.000000
				CHANNELS 3 Zrotation Yrotation Xrotation
				JOINT RightFoot
				{
					OFFSET -2.568260 -7.056230 0.000000
					CHANNELS 3 Zrotation Yrotation Xrotation
					JOINT RightToeBase
					{
						OFFSET -0.164730 -0.452590 2.363150
						CHANNELS 3 Zrotation Yrotation Xrotation
						End Site
						{
							OFFSET 0.000000 0.000000 0.000000
						}
					}
				}
			}
		}
	}
}
MOTION
Frames: 27
Frame Time: 0.008333
9.584595 21.324234 0.215671 24.583983 -68.526487 1.896096 -8.843036 0.189655 0.816583 -15.832732 7.520762 -77.073885 2.246201 6.650022 86.575812 3.048988 16.281077 -7.989500 0.353500 -0.000000 -40.504800 13.545311 -0.580423 -3.426712 -6.902312 -23.685591 -32.939953 -3.649977 -6.348682 92.975685 -0.914836 -2.770615 -4.092008 -0.083800 -0.000000 -76.835800
9.497091 21.407199 0.187585 23.894659 -68.076407 3.078780 -8.653438 -0.058385 0.877785 -16.690094 6.853203 -82.130835 2.858301 7.187600 90.531604 3.127215 16.423501 -9.076586 0.077499 0.000000 -38.948200 13.664870 -0.441811 -3.935295 -7.669966 -24.264217 -34.179520 -4.730955 -7.027902 99.979973 -0.890781 -3.030987 -7.063249 -0.015899 0.000000 -74.725000
9.405980 21.477731 0.161011 23.311005 -67.752961 4.183032 -8.444878 -0.276549 0.969187 -17.615653 6.111153 -87.293818 3.510628 7.708064 94.248700 3.201978 16.583126 -9.929529 -0.139100 -0.000000 -37.481400 13.771773 -0.291742 -4.413268 -8.594289 -24.721180 -35.221894 -6.006308 -7.693110 106.761425 -0.882964 -3.351462 -10.123506 0.084000 -0.000001 -72.751000
9.310739 21.536978 0.137895 22.786810 -67.539877 5.249030 -8.222349 -0.463306 1.090173 -18.567332 5.257816 -92.521063 4.195791 8.206804 97.728599 3.274760 16.764288 -10.605819 -0.311900 -0.000001 -36.124000 13.855043 -0.126789 -4.850069 -9.698921 -25.054002 -36.012179 -7.476398 -8.324925 113.243897 -0.913470 -3.798737 -13.193015 0.235000 -0.000000 -71.056301
9.211033 21.586242 0.119207 22.334418 -67.412885 6.260316 -7.987022 -0.616007 1.231943 -19.527191 4.259145 -97.751769 4.902452 8.678755 100.962384 3.346098 16.970361 -11.135755 -0.449100 -0.000000 -34.911900 13.906093 0.057496 -5.226525 -11.039478 -25.252395 -36.499691 -9.128254 -8.905508 119.331556 -1.001713 -4.406555 -16.146139 0.458000 0.000000 -69.707600
9.106206 21.626827 0.105354 21.991929 -67.344706 7.183473 -7.738120 -0.731518 1.380242 -20.486517 3.090148 -102.915234 5.616567 9.120751 103.934972 3.415769 17.204895 -11.520639 -0.550400 -0.000000 -33.900500 13.917134 0.262414 -5.515372 -12.676865 -25.292754 -36.648928 -10.929172 -9.419193 124.912202 -1.158621 -5.169671 -18.820605 0.760100 0.000000 -68.794000
8.996117 21.660019 0.096611 21.766724 -67.306679 8.006687 -7.477445 -0.807194 1.518178 -21.423873 1.741813 -107.936200 6.324343 9.532576 106.631780 3.482997 17.472540 -11.737570 -0.607400 0.000000 -33.159500 13.879218 0.481938 -5.692094 -14.640820 -25.143389 -36.442157 -12.818408 -9.853878 129.867125 -1.378981 -6.035440 -21.059963 1.120700 0.000001 -68.299500
8.880436 21.686222 0.092472 21.651642 -67.277832 8.726300 -7.207971 -0.838272 1.630604 -22.316863 0.232229 -112.744990 7.011942 9.916022 109.037874 3.545977 17.775983 -11.744583 -0.604400 -0.000000 -32.785500 13.788864 0.699889 -5.739810 -16.915176 -24.773881 -35.899586 -14.708078 -10.206978 134.091822 -1.637407 -6.906101 -22.759302 1.490300 -0.000000 -68.135900
8.759236 21.705707 0.091321 21.636637 -67.239700 9.322745 -6.933097 -0.821795 1.699075 -23.152562 -1.396690 -117.256641 7.666132 10.272082 111.148203 3.604089 18.122979 -11.517599 -0.530100 -0.000000 -32.741900 13.651495 0.891333 -5.667376 -19.444193 -24.184786 -35.059066 -16.492827 -10.492780 137.508862 -1.892407 -7.655403 -23.923236 1.810100 -0.000001 -68.015100
8.632278 21.718662 0.092056 21.624547 -67.194395 9.851079 -6.665317 -0.755646 1.723342 -23.894360 -3.059363 -121.422406 8.276229 10.600947 112.958950 3.653855 18.505078 -11.013871 -0.364900 0.000000 -33.134700 13.478189 1.029181 -5.509113 -22.048298 -23.421959 -34.025173 -18.051938 -10.725553 140.082584 -2.107015 -8.206320 -24.647240 2.045100 -0.000001 -67.719900
8.499952 21.725790 0.093290 21.533523 -67.136693 10.340069 -6.415742 -0.646792 1.704790 -24.524838 -4.673564 -125.183563 8.830812 10.898149 114.473408 3.694894 18.920396 -10.232720 -0.102300 -0.000000 -33.910800 13.286170 1.102377 -5.327702 -24.524247 -22.611658 -32.911654 -19.274561 -10.925847 141.813164 -2.262916 -8.555581 -25.095699 2.200300 0.000000 -67.043200
8.363029 21.727468 0.094196 21.285367 -67.058192 10.819458 -6.194401 -0.510787 1.651732 -25.039713 -6.165571 -128.490666 9.319050 11.156702 115.700444 3.727662 19.362303 -9.197171 0.256601 0.000000 -35.000000 13.093240 1.123907 -5.190323 -26.658799 -21.934850 -31.844993 -20.071040 -11.106557 142.729724 -2.367749 -8.789406 -25.421254 2.311900 0.000000 -65.995600
8.222143 21.724457 0.094180 20.845575 -66.946022 11.300552 -6.007233 -0.367984 1.575840 -25.452912 -7.484958 -131.302733 9.728437 11.370127 116.644071 3.753626 19.819359 -7.958214 0.700000 0.000001 -36.294000 12.914964 1.124950 -5.146478 -28.294520 -21.573846 -30.933768 -20.388771 -11.271716 142.877757 -2.442157 -9.022817 -25.724440 2.421001 -0.000000 -64.735200
8.078144 21.717644 0.093004 20.212840 -66.793288 11.786658 -5.856789 -0.238420 1.488711 -25.787414 -8.602762 -133.598505 10.049292 11.535029 117.312943 3.773773 20.271434 -6.586245 1.206100 0.000000 -37.667500 12.760807 1.137997 -5.216274 -29.356175 -21.644118 -30.249893 -20.221629 -11.416146 142.314556 -2.501279 -9.326194 -26.043175 2.551000 -0.000000 -63.487799
7.931765 21.707423 0.090340 19.423537 -66.599943 12.268178 -5.743197 -0.135503 1.400070 -26.071541 -9.508821 -135.369606 10.272925 11.651411 117.710123 3.787279 20.685401 -5.162626 1.744500 0.000000 -38.996900 12.633437 1.182638 -5.390520 -29.856681 -22.162277 -29.819081 -19.606919 -11.529543 141.099492 -2.544316 -9.688000 -26.361041 2.698800 -0.000000 -62.492899
7.783884 21.694404 0.086663 18.495904 -66.392111 12.767802 -5.667768 -0.068206 1.318403 -26.317163 -10.186836 -136.646206 10.398569 11.722809 117.848967 3.792901 21.030418 -3.754568 2.285300 0.000000 -40.197600 12.528299 1.259321 -5.638988 -29.843430 -23.038337 -29.647580 -18.613956 -11.595483 139.300639 -2.559449 -10.036307 -26.631130 2.840400 0.000000 -61.892300
7.635363 21.678413 0.082173 17.457869 -66.199397 13.299883 -5.630258 -0.039383 1.248603 -26.534904 -10.624782 -137.464371 10.427184 11.753392 117.737382 3.787220 21.270846 -2.404275 2.802600 0.000000 -41.272700 12.437591 1.357298 -5.922561 -29.390622 -24.134720 -29.718710 -17.332725 -11.599093 136.989792 -2.536267 -10.293101 -26.796274 2.945800 0.000000 -61.697000
7.486731 21.659532 0.076198 16.402792 -66.019558 13.817240 -5.626031 -0.044238 1.190766 -26.745535 -10.854752 -137.821978 10.358360 11.745721 117.375574 3.767531 21.375125 -1.165313 3.264800 0.000000 -42.147300 12.355504 1.466123 -6.201192 -28.616446 -25.325780 -29.979730 -15.864127 -11.534796 134.233937 -2.474944 -10.423453 -26.782561 2.991000 -0.000000 -61.999300
7.338788 21.637418 0.069305 15.323449 -65.894945 14.354827 -5.653201 -0.083718 1.145373 -26.941440 -10.855472 -137.783959 10.201858 11.704179 116.779232 3.732693 21.341108 -0.009419 3.672800 0.000000 -42.971700 12.275022 1.571884 -6.442077 -27.564245 -26.475070 -30.423448 -14.299182 -11.395282 131.114983 -2.392344 -10.464390 -26.573686 2.982100 0.000000 -62.532299
7.191961 21.611599 0.061113 14.264296 -65.835386 14.890336 -5.705578 -0.154314 1.109021 -27.129105 -10.641547 -137.374190 9.963168 11.630687 115.950953 3.683486 21.179181 1.091531 4.030900 0.000000 -43.857600 12.193394 1.669016 -6.622152 -26.301104 -27.498958 -31.024501 -12.719502 -11.185261 127.707327 -2.313969 -10.508037 -26.168194 2.944001 0.000000 -63.131800
7.046508 21.581733 0.051218 13.293661 -65.827727 15.371506 -5.776059 -0.249226 1.076088 -27.319657 -10.256569 -136.591042 9.647844 11.526055 114.893146 3.622156 20.905203 2.141447 4.338000 -0.000000 -44.692100 12.109690 1.760704 -6.730401 -24.906708 -28.364733 -31.747247 -11.187620 -10.917595 124.072349 -2.267262 -10.675968 -25.584879 2.911800 -0.000000 -63.683199
6.902700 21.547005 0.039519 12.404517 -65.896072 15.803537 -5.858188 -0.367657 1.040724 -27.513401 -9.690465 -135.477261 9.263829 11.391193 113.607079 3.553472 20.566959 3.230848 4.630400 -0.000000 -45.789200 12.024399 1.844319 -6.762138 -23.403657 -29.028168 -32.590899 -9.741549 -10.602861 120.267168 -2.271668 -11.062440 -24.894896 2.918700 0.000001 -64.023800
6.760489 21.506974 0.025848 11.648087 -66.024617 16.138258 -5.945785 -0.501140 0.995886 -27.722859 -8.987526 -134.029766 8.817065 11.226411 112.091319 3.481509 20.192258 4.367722 4.913500 -0.000000 -46.988600 11.938524 1.925844 -6.720910 -21.855699 -29.497940 -33.521497 -8.401988 -10.256727 116.322973 -2.337033 -11.724052 -24.156049 2.980800 -0.000000 -64.150300
6.619877 21.461210 0.010223 11.029504 -66.219396 16.363638 -6.034283 -0.644541 0.934244 -27.953844 -8.159819 -132.271589 8.314978 11.032346 110.344649 3.410321 19.815036 5.595728 5.207100 0.000000 -48.390600 11.853132 2.005327 -6.611997 -20.293774 -29.767042 -34.515008 -7.172647 -9.888806 112.256155 -2.460947 -12.649877 -23.436479 3.097300 -0.000000 -64.038300
6.480857 21.409463 -0.007210 10.551867 -66.481730 16.466730 -6.121338 -0.791573 0.847783 -28.215802 -7.218127 -130.217506 7.764212 10.810151 108.363298 3.341177 19.445284 6.912756 5.510801 0.000000 -49.856900 11.768599 2.082298 -6.442440 -18.748692 -29.834754 -35.534344 -6.047516 -9.504774 108.064177 -2.631049 -13.768118 -22.784685 3.252400 -0.000000 -63.697400
6.343076 21.350729 -0.026190 10.211353 -66.814225 16.445370 -6.206168 -0.935703 0.730978 -28.512097 -6.171280 -127.891753 7.171768 10.561536 106.141396 3.273809 19.084418 8.320302 5.823800 -0.000000 -51.437700 11.684749 2.154474 -6.218912 -17.244111 -29.700457 -36.537979 -5.016914 -9.106220 103.735341 -2.827672 -14.959001 -22.222548 3.419200 -0.000000 -63.169700
6.206361 21.284848 -0.046182 9.984111 -67.221449 16.313328 -6.290980 -1.070887 0.579618 -28.842253 -5.018210 -125.322888 6.546245 10.289474 103.678346 3.203971 18.704136 9.772337 6.121600 -0.000001 -52.924500 11.599557 2.218035 -5.948328 -15.792545 -29.362312 -37.480194 -4.070247 -8.690319 99.250201 -3.026161 -16.072292 -21.738288 3.562300 -0.000001 -62.538100
